# 3ds Max Wavefront OBJ Exporter v0.97b - (c)2007 guruware
# File Created: 09.10.2016 01:35:16

mtllib ExitSign.mtl

#
# object Box001
#

v  -83.3161 0.0000 17.0971
v  -83.3161 0.0000 -35.4306
v  23.9929 0.0000 -35.4306
v  23.9929 0.0000 17.0971
v  -83.3161 48.1600 17.0971
v  23.9929 48.1600 17.0971
v  23.9929 48.1600 -35.4306
v  -83.3161 48.1600 -35.4306
v  21.1399 2.8530 -35.4306
v  -80.4631 2.8530 -35.4306
v  -80.4631 45.3071 -35.4306
v  21.1399 45.3071 -35.4306
v  23.9929 0.0000 -37.0923
v  -83.3161 0.0000 -37.0923
v  -80.4631 2.8530 -37.0923
v  21.1399 2.8530 -37.0923
v  -83.3161 48.1600 -37.0923
v  -80.4631 45.3071 -37.0923
v  23.9929 48.1600 -37.0923
v  21.1399 45.3071 -37.0923
# 20 vertices

vn 0.0000 -1.0000 -0.0000
vn 0.0000 1.0000 -0.0000
vn 0.0000 0.0000 1.0000
vn 1.0000 0.0000 -0.0000
vn 0.0000 0.0000 -1.0000
vn -1.0000 0.0000 -0.0000
# 6 vertex normals

vt 0.4863 0.2743 0.0000
vt 0.4863 0.5075 0.0000
vt 0.0100 0.5075 0.0000
vt 0.0100 0.2743 0.0000
vt 0.4863 0.2505 0.0000
vt 0.0100 0.2505 0.0000
vt 0.0100 0.0174 0.0000
vt 0.4863 0.0174 0.0000
vt 0.9864 0.2238 0.0000
vt 0.5101 0.2238 0.0000
vt 0.5101 0.0100 0.0000
vt 0.9864 0.0100 0.0000
vt 0.2505 0.9900 0.0000
vt 0.0174 0.9900 0.0000
vt 0.0174 0.7762 0.0000
vt 0.2505 0.7762 0.0000
vt 0.9611 0.4628 0.0000
vt 0.5101 0.4628 0.0000
vt 0.5101 0.2743 0.0000
vt 0.9611 0.2743 0.0000
vt 0.7433 0.7524 0.0000
vt 0.5101 0.7524 0.0000
vt 0.5101 0.5387 0.0000
vt 0.7433 0.5387 0.0000
vt 0.4863 0.7524 0.0000
vt 0.0100 0.7524 0.0000
vt 0.0227 0.7398 0.0000
vt 0.4736 0.7398 0.0000
vt 0.0100 0.5387 0.0000
vt 0.0227 0.5513 0.0000
vt 0.4863 0.5387 0.0000
vt 0.4736 0.5513 0.0000
vt 0.4863 0.5149 0.0000
vt 0.0100 0.5149 0.0000
vt 0.7506 0.5387 0.0000
vt 0.7506 0.7524 0.0000
vt 0.0100 0.0100 0.0000
vt 0.4863 0.0100 0.0000
vt 0.0100 0.9900 0.0000
vt 0.0100 0.7762 0.0000
vt 0.9611 0.4940 0.0000
vt 0.5101 0.4940 0.0000
vt 0.5101 0.4866 0.0000
vt 0.9611 0.4866 0.0000
vt 0.2446 0.7054 0.0000
vt 0.4330 0.7054 0.0000
vt 0.4330 0.7127 0.0000
vt 0.2446 0.7127 0.0000
vt 0.2743 0.7762 0.0000
vt 0.7253 0.7762 0.0000
vt 0.7253 0.7836 0.0000
vt 0.2743 0.7836 0.0000
vt 0.4330 0.7280 0.0000
vt 0.2446 0.7280 0.0000
vt 0.2446 0.7207 0.0000
vt 0.4330 0.7207 0.0000
# 56 texture coords

g Box001
usemtl wire_088199225
s 2
f 1/1/1 2/2/1 3/3/1 4/4/1 
s 4
f 5/5/2 6/6/2 7/7/2 8/8/2 
s 8
f 1/9/3 4/10/3 6/11/3 5/12/3 
s 16
f 4/13/4 3/14/4 7/15/4 6/16/4 
s 32
f 9/17/5 10/18/5 11/19/5 12/20/5 
s 64
f 2/21/6 1/22/6 5/23/6 8/24/6 
s off
f 13/25/5 14/26/5 15/27/5 16/28/5 
f 14/26/5 17/29/5 18/30/5 15/27/5 
f 17/29/5 19/31/5 20/32/5 18/30/5 
f 19/31/5 13/25/5 16/28/5 20/32/5 
f 3/3/1 2/2/1 14/33/1 13/34/1 
f 2/21/6 8/24/6 17/35/6 14/36/6 
f 8/8/2 7/7/2 19/37/2 17/38/2 
f 7/15/4 3/14/4 13/39/4 19/40/4 
f 10/41/2 9/42/2 16/43/2 15/44/2 
f 9/45/6 12/46/6 20/47/6 16/48/6 
f 12/49/1 11/50/1 18/51/1 20/52/1 
f 11/53/4 10/54/4 15/55/4 18/56/4 
# 18 polygons

